<?xml version="1.0" standalone="no"?>
<!DOCTYPE svg PUBLIC "-//W3C//DTD SVG 20010904//EN"
 "http://www.w3.org/TR/2001/REC-SVG-20010904/DTD/svg10.dtd">
<svg version="1.0" xmlns="http://www.w3.org/2000/svg"
 width="613.000000pt" height="600.000000pt" viewBox="0 0 613.000000 600.000000"
 preserveAspectRatio="xMidYMid meet">
<metadata>
Created by potrace 1.15, written by Peter Selinger 2001-2017
</metadata>
<g transform="translate(0.000000,600.000000) scale(0.100000,-0.100000)"
fill="#000000" stroke="none">
<path d="M2840 5952 c-60 -3 -249 -30 -428 -61 -104 -18 -153 -31 -207 -51
-11 -5 -45 -16 -75 -25 -30 -9 -122 -43 -205 -75 -82 -32 -157 -61 -165 -64
-8 -4 -28 -15 -45 -26 -16 -11 -37 -23 -45 -27 -8 -3 -28 -15 -43 -26 -16 -11
-56 -31 -90 -46 -34 -15 -92 -46 -129 -69 -37 -24 -71 -44 -75 -45 -4 0 -19
-11 -33 -24 -14 -13 -47 -38 -75 -56 -47 -30 -58 -39 -110 -86 -11 -10 -28
-22 -37 -28 -15 -7 -258 -241 -258 -248 0 -1 -15 -18 -33 -38 -19 -19 -55 -64
-80 -99 -26 -34 -51 -67 -55 -73 -4 -5 -23 -30 -42 -55 -19 -25 -38 -46 -42
-48 -5 -2 -8 -9 -8 -16 0 -7 -9 -21 -20 -31 -11 -10 -20 -22 -20 -26 0 -4 -26
-47 -58 -96 -61 -93 -202 -371 -202 -398 0 -4 -6 -21 -13 -38 -20 -45 -37
-101 -37 -118 0 -8 -7 -27 -15 -42 -22 -42 -58 -171 -74 -264 -6 -32 -17 -87
-25 -123 -8 -36 -17 -101 -20 -145 -12 -150 -15 -575 -5 -633 5 -31 12 -82 15
-112 6 -63 31 -218 44 -270 4 -19 14 -60 20 -90 24 -109 100 -348 117 -365 7
-8 13 -20 13 -27 0 -7 7 -26 16 -43 8 -16 31 -67 50 -112 44 -108 60 -137 121
-219 27 -38 56 -80 63 -93 7 -14 17 -30 22 -35 5 -6 23 -33 41 -61 17 -27 40
-59 50 -70 10 -11 49 -63 87 -115 66 -91 197 -226 344 -355 38 -33 94 -84 126
-112 31 -29 62 -53 68 -53 7 0 12 -4 12 -10 0 -5 7 -10 15 -10 8 0 15 -4 15
-9 0 -5 16 -16 35 -25 19 -9 40 -25 47 -34 12 -16 317 -174 443 -229 166 -73
475 -173 610 -198 182 -34 510 -60 719 -57 104 2 328 23 411 39 44 9 91 17
105 18 14 1 32 4 40 7 47 17 123 40 175 54 33 9 89 24 125 33 36 10 83 28 105
39 22 12 45 22 52 22 14 0 145 60 153 69 3 4 54 31 113 61 59 30 113 60 119
67 6 7 17 13 26 13 8 0 30 11 48 25 18 14 35 25 39 25 10 0 90 55 102 70 6 8
28 24 50 35 21 11 56 34 78 51 22 18 54 40 71 50 67 40 371 327 406 382 11 19
35 48 52 65 18 18 43 48 56 67 26 38 50 68 119 150 25 29 56 75 69 104 13 28
27 53 31 56 11 7 86 155 105 205 8 22 37 96 65 165 27 69 66 188 86 265 136
524 130 489 129 820 -1 155 -7 250 -23 365 -12 85 -26 190 -32 233 -5 43 -14
88 -18 100 -5 12 -21 72 -36 132 -16 61 -31 115 -36 120 -4 6 -21 46 -38 90
-18 44 -36 89 -41 100 -5 11 -19 45 -31 75 -20 54 -114 256 -146 315 -9 17
-30 48 -48 70 -17 22 -44 60 -59 85 -72 119 -137 210 -214 300 -139 163 -380
365 -552 464 -47 27 -87 52 -90 55 -3 4 -59 33 -125 66 -66 33 -122 62 -125
65 -5 6 -66 35 -90 44 -8 3 -22 10 -30 16 -23 14 -101 47 -193 81 -45 16 -89
32 -97 36 -8 4 -22 8 -30 9 -8 2 -42 12 -75 22 -89 29 -237 65 -259 64 -11 -1
-51 6 -90 14 -39 9 -82 18 -96 21 -27 5 -589 10 -680 5z m246 -24 c3 -4 7
-157 8 -341 l1 -334 -135 -7 c-128 -6 -323 -30 -341 -42 -5 -3 -53 -16 -106
-30 -243 -63 -484 -164 -642 -269 -37 -23 -83 -51 -103 -62 -21 -10 -38 -24
-38 -30 0 -7 -4 -13 -8 -13 -5 0 -33 -21 -63 -46 -30 -25 -76 -64 -104 -87
-91 -77 -170 -149 -219 -201 -71 -75 -216 -267 -216 -286 0 -6 -4 -10 -8 -10
-5 0 -15 -12 -22 -27 -8 -16 -22 -39 -31 -53 -20 -30 -111 -238 -140 -319 -33
-94 -99 -363 -99 -406 0 -23 -5 -46 -12 -53 -7 -7 -11 -58 -12 -142 l-1 -132
-35 6 c-19 3 -179 6 -354 6 l-319 0 7 186 c8 199 18 273 65 457 36 140 119
390 154 462 25 50 63 138 77 175 8 19 29 59 47 88 18 29 33 56 33 60 0 4 13
21 28 37 15 17 57 75 94 130 69 105 141 195 267 333 204 225 388 372 626 504
39 22 97 55 130 74 33 19 76 42 95 52 19 9 37 19 40 22 8 8 48 25 165 70 388
149 542 188 880 223 118 13 280 15 291 5z m334 -7 c36 -6 85 -11 111 -11 25 0
49 -4 55 -9 5 -4 43 -13 84 -20 41 -6 89 -16 105 -21 17 -5 57 -16 90 -24 177
-42 359 -113 573 -220 94 -48 173 -86 176 -86 10 0 157 -91 286 -177 192 -128
310 -236 496 -458 19 -22 40 -47 47 -55 93 -104 292 -442 357 -605 14 -33 30
-69 37 -80 6 -11 12 -22 12 -25 0 -7 15 -48 50 -130 50 -116 122 -393 137
-520 7 -63 20 -173 29 -245 8 -71 15 -152 15 -178 l0 -48 -302 2 c-167 1 -325
5 -353 8 l-50 6 -2 90 c-1 50 -5 104 -7 120 -3 17 -8 53 -11 80 -25 210 -113
499 -208 680 -134 255 -246 407 -473 642 -75 79 -212 193 -230 193 -6 0 -18 7
-25 16 -7 9 -22 20 -34 25 -11 5 -47 27 -80 49 -132 86 -188 112 -440 207
-151 57 -471 123 -632 131 l-113 5 0 338 0 338 118 -4 c64 -2 146 -9 182 -14z
m-337 -1013 l-6 -315 -91 -6 c-196 -13 -424 -66 -551 -128 -45 -21 -84 -39
-89 -39 -8 0 -126 -70 -216 -128 -155 -100 -340 -295 -430 -452 -145 -255
-215 -501 -215 -764 l0 -49 -175 7 c-96 4 -246 7 -334 7 l-159 0 7 128 c10
172 11 183 49 351 52 232 174 523 285 680 41 59 68 92 189 239 81 97 372 344
492 418 93 56 394 197 499 232 136 46 347 98 430 106 241 24 317 31 319 30 1
-1 0 -143 -4 -317z m317 296 c185 -29 441 -94 509 -129 17 -8 35 -15 42 -15
11 0 109 -44 204 -92 146 -74 409 -259 505 -357 254 -258 415 -499 529 -796
24 -60 49 -126 57 -145 17 -43 74 -299 78 -356 2 -23 6 -46 10 -52 3 -5 9 -62
12 -126 l7 -115 -320 0 -320 1 -12 101 c-21 184 -84 413 -154 567 -74 165
-261 402 -412 525 -69 56 -228 161 -300 199 -39 20 -77 40 -85 45 -82 49 -410
130 -546 134 l-99 3 3 105 c2 57 5 149 7 204 2 55 4 151 4 213 l1 113 93 -6
c50 -4 135 -13 187 -21z m-328 -896 c-1 -145 -4 -268 -7 -275 -2 -7 -25 -12
-57 -12 -235 0 -479 -108 -673 -298 -75 -73 -171 -231 -205 -338 -7 -22 -17
-46 -23 -53 -12 -16 -36 -177 -37 -249 l0 -53 -281 1 -282 0 7 117 c11 218 22
268 95 457 41 104 46 114 110 220 168 277 314 406 646 574 131 66 151 73 280
107 81 22 320 58 410 63 20 1 20 -4 17 -261z m224 247 c111 -18 243 -49 315
-74 85 -29 260 -112 308 -145 24 -17 54 -38 66 -46 12 -8 49 -33 81 -54 92
-62 262 -240 337 -352 160 -241 213 -393 266 -751 19 -123 51 -110 -266 -109
l-278 1 -6 80 c-14 182 -94 389 -206 532 -105 135 -191 203 -353 283 -108 53
-242 89 -368 100 -55 4 -87 12 -93 21 -4 8 -7 91 -5 184 2 94 4 209 5 258 l1
87 53 0 c28 0 93 -7 143 -15z m-226 -617 c0 -35 3 -257 7 -495 l6 -432 -264 5
c-145 3 -367 8 -494 12 l-230 7 3 80 c5 123 32 227 96 368 17 35 31 55 38 51
6 -4 8 -3 4 4 -10 17 71 128 145 195 112 104 216 173 304 202 118 38 235 61
333 64 l52 1 0 -62z m218 46 c96 -20 249 -76 316 -117 190 -116 349 -298 415
-478 28 -75 64 -219 57 -226 -3 -4 -2 -11 3 -17 4 -6 11 -37 15 -68 l6 -57
-496 2 -497 2 -4 435 c-2 239 -5 455 -7 480 -2 25 -2 48 1 53 7 12 110 8 191
-9z m-2488 -1028 c1 -33 5 -92 10 -131 6 -38 15 -108 21 -155 6 -47 28 -143
49 -215 38 -131 150 -411 198 -495 14 -25 36 -65 50 -90 13 -25 30 -52 37 -60
7 -8 14 -20 16 -26 2 -6 14 -24 27 -40 12 -16 52 -69 89 -119 79 -105 237
-267 308 -314 28 -19 62 -45 77 -59 15 -13 35 -30 46 -36 11 -6 45 -28 76 -48
31 -21 59 -38 62 -38 3 0 20 -11 37 -23 18 -13 73 -45 122 -72 50 -26 92 -50
95 -54 3 -3 14 -8 25 -9 11 -2 37 -13 58 -23 128 -66 382 -133 567 -149 68 -6
127 -13 131 -16 4 -2 40 -5 81 -6 l73 -1 -2 -286 c0 -157 2 -314 6 -349 l8
-63 -156 5 c-149 5 -340 31 -511 71 -36 8 -88 20 -116 25 -46 10 -166 50 -339
114 -128 47 -458 218 -550 285 -180 130 -441 356 -541 468 -105 119 -228 276
-280 358 -10 17 -41 62 -68 100 -27 39 -83 142 -124 230 -104 226 -141 330
-217 620 -31 116 -65 433 -65 597 l0 69 314 -3 c173 -1 317 0 320 3 3 3 19 4
36 1 30 -4 30 -5 30 -66z m403 54 l277 -1 1 -42 c2 -121 38 -296 94 -459 40
-116 108 -255 161 -329 121 -171 257 -318 369 -399 33 -24 62 -47 63 -52 2 -4
8 -8 13 -8 5 0 27 -11 49 -25 62 -39 202 -112 230 -120 14 -3 52 -17 85 -29
33 -13 83 -31 110 -40 54 -18 268 -45 352 -46 l52 0 -1 -326 -2 -326 -101 7
c-55 3 -111 8 -125 10 -14 2 -50 6 -80 9 -170 20 -278 47 -479 123 -54 20
-264 126 -376 191 -240 138 -475 343 -595 520 -14 20 -52 75 -86 122 -65 92
-164 268 -164 293 0 8 -4 17 -8 19 -10 4 -92 217 -121 313 -12 39 -26 84 -31
100 -5 17 -14 62 -20 100 -24 163 -39 274 -45 341 l-7 71 54 -8 c29 -5 178 -9
331 -9z m878 -96 c10 -128 68 -283 157 -419 52 -79 109 -140 201 -217 157
-130 342 -211 526 -232 l100 -12 -2 -134 c-1 -74 -2 -201 -3 -282 l-1 -147
-27 9 c-15 5 -74 11 -132 15 -58 3 -134 14 -170 25 -36 10 -94 26 -130 35
-138 36 -384 171 -526 288 -91 75 -105 97 -63 97 10 0 19 5 19 10 0 6 -13 10
-28 10 -40 0 -78 41 -63 68 7 14 17 18 31 15 22 -6 17 -23 -7 -23 -14 0 -14
-3 2 -20 24 -26 26 -25 50 10 11 16 26 30 33 30 18 0 15 21 -5 36 -24 18 -31
17 -29 -3 0 -10 -6 -18 -14 -18 -17 0 -69 90 -69 120 -1 12 -24 58 -52 103
-57 94 -124 152 -174 151 -30 0 -29 -1 11 -18 55 -25 120 -101 161 -191 19
-41 43 -93 54 -114 18 -39 18 -40 -2 -54 -17 -12 -18 -16 -8 -23 10 -6 10 -9
2 -9 -7 0 -10 -7 -7 -15 4 -8 4 -15 1 -15 -8 0 -123 145 -160 203 -129 202
-231 500 -244 718 l-6 100 284 -4 284 -5 6 -88z m46 75 c-6 -22 13 -35 38 -25
13 4 14 10 5 26 -11 21 -24 21 435 5 66 -2 200 -4 299 -5 l179 0 -7 -40 c-3
-22 -9 -231 -12 -463 l-6 -422 -66 3 c-121 6 -321 78 -463 167 -24 16 -86 70
-139 121 -170 166 -260 352 -285 592 -6 54 -5 62 10 62 13 0 16 -6 12 -21z
m1969 -33 c-9 -55 -35 -171 -50 -222 -7 -23 -37 -85 -67 -139 -89 -162 -269
-334 -434 -418 -117 -58 -271 -103 -393 -114 l-64 -5 4 458 c2 253 6 464 10
469 4 6 184 10 503 11 l497 1 -6 -41z m580 -38 c-10 -116 -41 -265 -76 -360
-37 -102 -130 -276 -186 -351 -24 -31 -44 -59 -44 -62 0 -3 -16 -29 -36 -58
-51 -74 -156 -179 -249 -250 -44 -33 -90 -71 -102 -84 -22 -23 -169 -103 -190
-103 -7 0 -36 -11 -65 -25 -100 -47 -183 -74 -298 -99 -91 -20 -280 -46 -331
-46 -5 0 -9 122 -9 279 l0 279 80 7 c154 14 275 49 391 115 39 22 75 40 80 40
5 0 9 3 9 8 0 4 17 18 38 32 49 33 54 37 110 91 68 66 152 156 152 164 0 4 8
19 19 33 42 61 91 162 109 229 11 39 25 80 32 92 6 12 8 31 5 41 -3 11 -3 39
0 62 l7 43 280 3 281 3 -7 -83z m414 72 l266 0 -8 -102 c-10 -139 -34 -269
-75 -408 -31 -102 -144 -392 -185 -475 -44 -86 -188 -315 -199 -315 -6 0 -6 8
1 19 23 43 -3 92 -33 62 -8 -8 -7 -11 6 -11 26 0 31 -25 12 -53 -31 -48 -75
-41 -75 11 0 24 1 24 18 8 18 -15 20 -15 38 6 16 18 16 20 3 15 -19 -6 -65 39
-71 69 -3 16 -7 14 -26 -14 l-23 -32 27 -10 28 -11 -21 -20 c-14 -14 -40 -23
-79 -28 -69 -8 -141 -51 -224 -134 -133 -132 -185 -278 -107 -303 25 -8 69 15
65 35 -4 20 -28 26 -28 6 0 -11 -7 -15 -22 -13 -18 2 -24 11 -26 36 -9 91 170
279 303 317 28 9 64 24 80 35 38 25 45 25 45 0 0 -27 26 -36 61 -23 25 10 28
9 20 -5 -5 -10 -63 -71 -128 -137 -103 -105 -239 -223 -338 -292 -54 -37 -228
-136 -295 -166 -36 -16 -92 -42 -125 -57 -204 -93 -522 -169 -787 -186 -89 -5
-108 -4 -108 7 -2 55 2 389 5 409 2 14 4 71 4 128 l1 102 73 0 c201 1 429 66
727 207 137 66 446 341 491 438 11 22 36 65 58 95 100 141 215 390 235 510 3
19 8 46 11 60 13 62 25 176 19 192 -9 30 5 38 64 33 31 -2 176 -4 322 -5z
m982 -83 c-10 -228 -16 -282 -43 -385 -11 -41 -36 -137 -55 -215 -66 -260
-178 -572 -257 -713 -48 -85 -84 -139 -128 -189 -28 -32 -82 -100 -121 -152
-62 -83 -259 -291 -363 -383 -288 -255 -640 -466 -1005 -604 -144 -54 -298
-106 -355 -120 -140 -34 -406 -67 -553 -69 l-107 -2 -2 353 -1 352 61 1 c61 0
104 3 222 14 124 12 148 16 166 26 11 5 23 8 27 5 13 -8 230 51 287 78 17 8
59 26 95 41 406 168 829 501 1034 814 35 53 71 110 80 126 9 17 21 37 26 45
17 26 86 181 135 305 87 222 154 498 160 664 1 47 3 86 4 87 0 0 157 -1 349
-4 l347 -4 -3 -71z"/>
<path d="M2770 5740 c-12 -8 -11 -10 6 -10 45 0 57 -47 25 -100 -20 -34 -148
-140 -169 -140 -7 0 -23 -7 -37 -16 -38 -25 -193 -46 -235 -33 -51 17 -51 17
-34 50 14 28 14 33 -1 55 -18 28 -18 28 -55 9 -32 -17 -38 -41 -19 -77 10 -18
8 -25 -11 -40 -22 -18 -24 -18 -45 2 l-21 20 -18 -37 -18 -38 -23 29 -23 29
-12 -23 c-11 -21 -9 -26 21 -51 39 -31 45 -30 54 11 8 35 12 36 37 13 17 -16
20 -15 52 16 l33 32 51 -26 c79 -41 164 -30 322 42 91 42 200 170 200 236 0
48 -41 72 -80 47z"/>
<path d="M1780 5400 c-40 -9 -110 -81 -110 -112 0 -55 68 -109 118 -94 44 14
80 77 62 107 -9 14 -9 14 -24 -35 -8 -24 -53 -48 -75 -41 -22 7 -37 45 -32 80
4 29 40 53 91 60 54 7 83 -3 130 -44 37 -34 40 -33 70 19 7 13 11 12 27 -3 11
-9 23 -14 26 -10 14 14 5 39 -22 60 l-28 22 -17 -36 c-14 -30 -19 -33 -32 -22
-10 8 -12 15 -5 17 19 6 12 32 -9 32 -11 0 -20 -5 -20 -11 0 -5 -10 -3 -22 5
-24 17 -71 19 -128 6z"/>
<path d="M1249 5239 c-23 -20 -18 -21 25 -3 7 3 20 -2 29 -11 13 -12 14 -21 6
-45 -6 -16 -17 -34 -25 -41 -8 -6 -14 -17 -14 -23 0 -16 -47 -50 -89 -64 -40
-14 -105 -16 -96 -3 3 5 0 21 -6 35 -17 37 -57 34 -97 -7 -22 -22 -32 -43 -32
-63 0 -34 26 -64 55 -64 14 0 13 4 -9 21 -31 24 -35 68 -8 92 26 24 51 21 61
-5 10 -26 -6 -39 -20 -17 -7 11 -13 10 -31 -8 l-22 -23 23 0 c26 0 60 -36 61
-64 0 -18 2 -18 25 4 l25 23 -21 11 c-34 17 -18 31 36 31 64 1 119 30 169 90
28 34 40 59 44 91 4 40 2 44 -22 54 -37 14 -40 13 -67 -11z"/>
<path d="M907 4653 c-16 -4 -57 -70 -57 -92 0 -5 8 -7 18 -4 24 6 60 -35 64
-72 l3 -30 28 46 c15 25 27 58 27 72 0 29 -19 77 -31 77 -4 0 -13 2 -21 4 -7
2 -21 2 -31 -1z"/>
<path d="M580 4041 c0 -12 -7 -24 -16 -28 -11 -4 -14 -13 -10 -29 5 -17 2 -24
-8 -24 -21 0 -30 -19 -28 -56 3 -41 -12 -50 -44 -29 -44 29 -51 10 -7 -21 48
-33 55 -54 18 -54 -22 0 -24 -3 -15 -19 14 -27 13 -31 -11 -31 -11 0 -17 -4
-14 -10 3 -5 23 -10 44 -10 74 0 177 -78 168 -127 -3 -16 1 -23 11 -23 27 0 7
71 -31 106 -19 17 -38 33 -43 35 -5 2 -18 22 -30 44 -11 22 -26 39 -32 38 -7
-2 -12 4 -12 12 0 9 6 12 15 9 8 -4 15 -11 15 -17 0 -6 3 -7 6 -4 4 3 15 2 25
-4 15 -8 19 -6 19 9 0 21 -42 48 -59 38 -7 -5 -11 3 -11 19 0 25 1 26 50 19
28 -4 50 -3 50 2 0 15 -14 29 -27 29 -7 0 -14 5 -14 10 -1 6 -5 20 -10 32 -8
21 -7 22 14 10 12 -6 30 -18 39 -26 15 -12 18 -11 24 3 4 9 5 18 3 19 -2 1
-17 9 -33 17 -48 24 -46 43 3 35 51 -8 53 6 4 25 -21 8 -41 16 -45 18 -5 2 -8
-6 -8 -17z"/>
<path d="M3635 5587 c-39 -39 -45 -75 -17 -100 24 -22 50 -21 89 3 39 24 52
63 32 99 -23 41 -62 40 -104 -2z"/>
<path d="M5006 5145 c-15 -14 -26 -28 -24 -31 3 -2 11 2 18 11 19 22 93 20
114 -4 14 -15 15 -24 6 -40 -6 -12 -20 -21 -30 -21 -25 0 -26 16 -2 29 16 9
16 11 -3 25 -18 13 -21 13 -29 -2 -15 -28 -69 -82 -83 -82 -20 0 -15 -17 9
-34 28 -20 38 -20 38 -2 0 7 6 19 14 25 19 16 44 -21 79 -114 49 -129 136
-234 207 -250 63 -14 115 43 94 102 -5 14 -15 28 -21 30 -10 4 -10 -3 -2 -26
9 -25 8 -36 -5 -56 -19 -29 -33 -31 -80 -11 -61 25 -86 63 -148 220 -13 33
-35 72 -50 88 -22 23 -23 28 -9 28 25 0 51 32 51 62 0 32 -38 67 -81 74 -28 5
-40 1 -63 -21z"/>
<path d="M5257 4342 c-28 -29 -33 -42 -18 -42 13 0 91 -52 91 -61 0 -4 -23
-12 -51 -18 -60 -13 -104 1 -104 34 0 17 6 20 39 19 36 -2 38 0 21 12 -31 23
-80 18 -92 -9 -13 -27 6 -70 37 -87 28 -15 92 -12 135 6 37 15 95 11 95 -6 0
-5 -16 -12 -35 -16 -47 -9 -50 -17 -13 -44 25 -18 30 -19 25 -6 -7 19 26 36
69 36 39 0 29 28 -16 41 -22 7 -40 16 -40 21 0 16 104 8 135 -10 19 -12 38
-16 50 -12 16 6 12 11 -29 35 -44 26 -53 27 -125 22 -72 -6 -81 -4 -115 19
-40 27 -40 48 0 38 14 -4 36 -1 50 6 23 13 23 15 7 32 -26 29 -84 24 -116 -10z"/>
<path d="M5692 3483 c-8 -14 -23 -18 -66 -18 -62 0 -69 -7 -28 -29 39 -20 67
-54 94 -111 38 -83 66 -121 108 -149 45 -29 93 -38 51 -8 -44 30 -79 71 -102
119 -12 27 -38 70 -57 97 l-36 49 38 -5 c36 -4 37 -4 30 26 -8 42 -20 52 -32
29z"/>
<path d="M1910 4827 c-14 -7 -27 -21 -29 -32 -3 -19 -3 -19 16 -2 22 19 53 14
53 -10 0 -8 -7 -37 -16 -64 -28 -85 -156 -172 -306 -209 -40 -10 -83 -21 -95
-25 -17 -6 -22 -2 -25 17 -5 39 -40 34 -86 -13 -44 -43 -53 -77 -27 -99 21
-18 31 -5 11 15 -14 15 -14 19 0 46 18 36 59 58 76 41 12 -12 4 -42 -12 -42
-5 0 -10 7 -10 17 0 14 -2 14 -21 -3 -22 -20 -24 -16 35 -59 17 -12 17 -16 5
-31 -7 -9 -22 -20 -34 -24 -18 -8 -18 -9 5 -9 29 -1 35 3 75 48 22 25 25 32
12 28 -10 -4 -28 -1 -39 8 -21 14 -21 14 3 23 13 6 56 15 94 20 78 12 224 79
287 131 69 58 109 178 74 224 -16 20 -14 20 -46 4z"/>
<path d="M1858 4416 c5 -66 -9 -79 -47 -42 l-28 26 -18 -20 c-17 -19 -18 -26
-7 -67 16 -58 7 -66 -26 -25 -22 26 -30 30 -40 20 -6 -6 -12 -18 -12 -26 0 -9
-7 -11 -20 -7 -15 5 -21 0 -26 -19 -3 -14 -12 -26 -20 -26 -8 0 -14 -9 -14
-21 0 -12 4 -17 11 -13 6 3 22 -6 34 -22 25 -31 47 -26 27 6 -7 11 -12 30 -12
42 1 22 1 22 26 -6 29 -33 44 -28 24 9 -17 33 -7 42 24 21 32 -20 33 -20 40 6
4 18 8 20 18 10 19 -19 28 -14 28 17 0 32 -20 55 -20 24 -1 -17 -2 -17 -15 1
-15 20 -21 56 -9 56 3 0 19 -11 36 -25 44 -37 58 -33 58 17 l0 41 24 -22 c21
-19 24 -20 30 -6 11 28 7 43 -11 41 -11 0 -23 11 -32 32 -21 46 -28 40 -23
-22z"/>
<path d="M1252 3593 c-19 -7 -43 -73 -36 -97 9 -30 43 -76 56 -76 7 0 1 11
-12 25 -28 30 -22 39 19 30 46 -10 61 -30 61 -82 0 -72 10 -44 19 53 8 89 5
109 -25 138 -15 15 -55 20 -82 9z"/>
<path d="M3439 4867 c-15 -12 -30 -35 -33 -52 l-7 -30 23 27 c45 52 103 63
139 27 39 -39 4 -119 -53 -119 -15 0 -28 3 -28 6 0 10 34 68 55 93 18 22 18
24 2 18 -10 -4 -29 -7 -42 -7 -17 0 -22 -5 -19 -17 7 -28 -32 -83 -58 -83 -13
0 -30 -5 -38 -10 -12 -8 -9 -10 12 -10 15 0 48 -7 74 -16 37 -12 52 -13 74 -4
76 32 98 115 44 171 -36 38 -105 41 -145 6z"/>
<path d="M3645 4760 c3 -10 -1 -33 -10 -51 -14 -26 -15 -33 -3 -40 18 -12 25
-11 53 7 27 18 33 7 14 -28 -8 -15 -8 -23 0 -31 9 -9 18 -3 37 21 33 41 44 41
37 -3 -5 -30 -3 -35 13 -34 11 0 28 4 38 8 19 7 19 8 -1 13 -16 4 -20 11 -16
28 8 30 45 52 77 44 l25 -6 -23 -32 c-13 -17 -26 -44 -28 -61 -3 -28 0 -30 31
-33 33 -3 33 -3 17 20 -22 31 -20 38 9 38 25 0 81 47 70 58 -12 12 -82 35
-121 39 -29 3 -51 -1 -78 -17 -21 -11 -40 -19 -43 -16 -2 2 3 18 12 36 9 18
15 34 12 36 -2 2 -21 -9 -42 -26 -44 -35 -65 -39 -58 -10 3 11 9 23 14 26 19
12 8 34 -17 34 -21 0 -24 -4 -19 -20z"/>
<path d="M4470 4645 c-11 -13 -8 -15 19 -15 35 0 99 -50 87 -68 -4 -7 -21 -12
-39 -12 -33 0 -28 15 7 22 18 3 18 5 -6 20 -25 16 -26 16 -54 -22 -16 -22 -38
-40 -48 -40 -18 0 -18 -2 4 -25 25 -27 42 -33 34 -12 -2 7 4 21 14 30 28 25
40 6 53 -89 13 -99 52 -172 125 -236 69 -61 120 -77 168 -54 40 19 61 49 51
74 -5 14 -9 10 -20 -15 -28 -67 -109 -57 -186 22 -67 69 -84 101 -102 196 -8
41 -18 82 -22 92 -5 13 -2 17 13 17 57 0 39 76 -27 109 -48 25 -55 26 -71 6z"/>
<path d="M4194 4483 c5 -15 0 -27 -20 -42 -15 -12 -34 -21 -42 -21 -15 0 -15
-2 0 -16 15 -15 20 -14 61 10 57 34 68 21 16 -18 -27 -21 -35 -32 -26 -38 15
-9 63 -11 54 -1 -12 11 15 33 41 33 l26 0 -28 -29 c-30 -31 -28 -51 5 -51 16
0 18 -5 13 -25 -5 -22 -3 -25 21 -25 24 0 26 -3 20 -30 l-6 -29 53 6 53 6 -20
-22 c-16 -19 -17 -24 -5 -31 8 -5 26 -6 39 -3 25 6 25 7 5 -41 -3 -9 5 -15 28
-18 25 -4 40 1 64 20 50 39 28 62 -61 62 l-40 0 27 25 c15 14 33 25 40 25 7 1
2 7 -11 14 -19 11 -30 11 -60 0 -75 -27 -92 -13 -38 31 l32 27 -32 -6 c-104
-19 -100 -19 -79 -2 11 9 31 16 45 17 14 0 35 4 46 8 38 15 -23 25 -66 11 -52
-18 -61 -5 -21 31 l32 29 -46 11 c-36 9 -43 14 -30 21 21 12 11 28 -15 28 -16
0 -19 5 -14 20 5 15 2 20 -14 20 -10 0 -27 3 -36 7 -14 5 -16 2 -11 -14z"/>
<path d="M2247 4290 c87 -35 -30 -189 -166 -219 -24 -5 -48 -14 -54 -20 -16
-16 -23 -14 -35 14 -16 35 -53 33 -75 -4 -19 -32 -22 -67 -8 -76 5 -3 9 9 9
26 -2 46 44 79 55 40 7 -27 -3 -34 -18 -14 -11 14 -12 14 -18 0 -4 -10 3 -21
19 -31 29 -19 30 -33 7 -59 -17 -19 -17 -20 3 -9 31 17 52 44 37 49 -27 9 -11
33 30 44 108 29 139 43 185 80 27 22 58 57 70 78 18 32 20 42 10 74 -10 32
-15 37 -42 36 -28 0 -29 -1 -9 -9z"/>
<path d="M1750 3623 c0 -27 10 -41 65 -90 36 -32 65 -61 65 -65 0 -10 -31 2
-51 19 -22 18 -31 5 -14 -21 8 -11 15 -29 15 -40 0 -18 -1 -18 -18 -3 -26 24
-33 21 -26 -8 5 -22 2 -26 -25 -31 -25 -5 -31 -11 -31 -33 0 -38 16 -50 61
-44 34 5 39 3 39 -14 0 -10 -5 -24 -12 -31 -6 -6 -8 -15 -4 -19 12 -12 39 12
47 40 11 40 -14 61 -63 53 -31 -5 -38 -3 -38 10 0 9 9 18 20 21 11 3 20 12 20
20 0 11 5 13 18 8 53 -22 64 -17 37 19 -20 26 -19 40 1 32 10 -4 25 3 39 16
18 17 22 30 18 53 -7 37 -30 65 -55 65 -25 0 -23 -18 4 -22 21 -3 47 -58 27
-58 -17 0 -100 83 -119 119 l-19 36 -1 -32z"/>
<path d="M3697 4268 c-34 -36 -56 -52 -71 -50 -26 3 -62 -25 -71 -57 -7 -22
-5 -24 24 -18 30 6 42 -5 21 -18 -19 -12 -10 -25 19 -25 16 0 31 -6 34 -14 3
-8 15 -12 30 -9 21 4 26 1 29 -18 2 -20 8 -24 34 -21 24 2 33 -2 37 -17 3 -12
15 -21 33 -23 22 -2 30 -9 32 -26 3 -16 8 -22 19 -18 8 3 21 6 29 6 8 0 14 5
14 10 0 6 -7 10 -15 10 -8 0 -15 5 -15 10 0 6 13 10 29 10 37 0 59 24 41 45
-7 8 -21 15 -31 15 -11 0 -19 4 -19 8 0 5 -13 18 -30 30 l-30 22 -39 -35 c-21
-19 -41 -35 -45 -35 -12 0 -6 46 10 68 14 21 14 22 -5 22 -11 0 -25 -9 -31
-20 -11 -20 -40 -28 -40 -11 0 4 9 20 20 34 11 14 20 28 20 31 0 3 -9 6 -20 6
-11 0 -20 -6 -20 -13 0 -8 -11 -24 -25 -37 -19 -18 -25 -20 -25 -8 0 22 69
122 122 176 21 21 21 22 3 22 -10 0 -41 -24 -68 -52z"/>
<path d="M3619 3169 c-8 -16 -13 -18 -19 -9 -5 7 -16 9 -30 5 -14 -5 -25 -2
-31 6 -6 11 -12 10 -27 -4 -18 -16 -20 -17 -26 -1 -5 13 -9 14 -20 5 -10 -8
-16 -9 -21 -1 -9 14 -25 13 -25 -3 0 -17 -32 -47 -49 -47 -9 0 -12 9 -8 25 3
16 0 24 -7 22 -11 -4 -20 -107 -9 -107 2 0 13 10 24 23 17 20 20 20 31 6 14
-17 43 -14 32 2 -8 14 4 59 16 59 6 0 10 -18 10 -40 0 -45 17 -55 22 -13 2 18
10 29 22 31 16 3 18 0 12 -22 -5 -19 -3 -26 9 -26 9 0 15 9 15 24 0 13 7 27
16 30 13 5 15 1 12 -24 -3 -20 0 -30 9 -30 8 0 13 12 13 30 0 17 5 30 10 30 6
0 13 -13 17 -30 6 -32 10 -35 33 -20 13 9 13 11 0 20 -11 7 -12 12 -3 18 6 4
15 20 18 35 6 23 4 27 -14 27 -11 0 -25 -10 -32 -21z"/>
<path d="M410 2640 c0 -5 17 -14 39 -20 42 -11 170 -126 172 -154 1 -9 2 -19
4 -23 1 -5 5 -21 10 -37 6 -21 0 -50 -20 -111 -23 -71 -31 -84 -59 -96 -37
-16 -44 -41 -22 -74 12 -18 26 -25 49 -25 68 0 104 62 52 90 -31 17 -31 21 1
59 47 57 31 193 -36 300 -35 54 -190 129 -190 91z"/>
<path d="M707 1408 c-15 -11 -10 -13 39 -15 66 -2 135 -38 165 -86 67 -109
123 -287 90 -287 -5 0 -16 -11 -25 -25 -16 -25 -16 -26 30 -73 25 -26 43 -41
39 -34 -4 7 11 36 35 68 41 55 42 55 63 37 12 -10 25 -22 29 -28 5 -6 8 -3 8
6 0 9 -17 33 -37 53 -33 31 -39 34 -43 19 -3 -10 -10 -27 -17 -38 -9 -16 -13
-17 -27 -6 -9 7 -16 21 -16 30 0 46 -50 205 -79 249 -60 94 -204 167 -254 130z"/>
<path d="M1210 1285 c0 -22 -4 -25 -33 -25 -26 0 -36 -6 -45 -24 -10 -22 -8
-25 18 -36 16 -7 33 -9 38 -6 14 8 62 15 62 8 0 -3 -9 -16 -21 -28 l-21 -22
38 -12 c34 -12 36 -14 20 -26 -17 -12 -16 -14 10 -20 41 -10 46 -14 34 -29 -8
-9 -6 -14 6 -19 25 -9 36 -7 32 6 -5 15 34 48 56 48 21 0 21 16 0 24 -9 4 -24
0 -34 -9 -18 -17 -56 -20 -65 -6 -3 5 14 21 37 35 33 20 39 26 25 31 -10 4
-27 -2 -43 -14 -21 -16 -30 -18 -46 -10 -20 11 -20 11 1 33 29 31 26 43 -9 38
-33 -5 -33 -4 -21 51 8 35 8 37 -15 37 -19 0 -24 -5 -24 -25z"/>
<path d="M1426 1053 c-23 -28 -33 -33 -53 -28 -21 5 -24 3 -18 -14 4 -15 -3
-26 -32 -45 -21 -14 -46 -26 -55 -26 -29 0 -21 -15 15 -28 49 -18 95 -15 138
10 32 18 41 19 54 8 20 -17 32 -5 15 15 -11 13 -10 19 6 36 28 31 87 58 140
66 42 5 46 4 42 -13 -4 -25 -63 -54 -110 -54 -20 0 -40 -4 -43 -10 -10 -16 71
-12 113 5 41 18 82 52 82 71 0 6 -13 17 -29 24 -55 22 -127 -1 -211 -69 -28
-23 -46 -26 -55 -10 -8 12 33 59 52 59 19 0 16 18 -5 29 -15 8 -24 3 -46 -26z"/>
<path d="M2040 715 c0 -3 5 -13 11 -23 10 -15 2 -35 -42 -112 -34 -60 -66
-103 -88 -117 -19 -13 -29 -23 -23 -23 6 0 17 -3 25 -6 21 -8 79 46 103 95 16
34 24 40 60 46 58 8 86 37 82 83 -3 38 -12 43 -50 27 -14 -5 -18 -2 -18 14 0
17 -6 21 -30 21 -16 0 -30 -2 -30 -5z"/>
<path d="M2515 523 c-59 -64 -67 -126 -22 -164 27 -23 38 -23 81 -2 65 30 87
123 41 168 -32 33 -68 32 -100 -2z"/>
<path d="M1153 2097 c-47 -14 -41 -28 10 -21 56 8 105 -16 176 -87 72 -71 107
-144 126 -260 8 -52 20 -102 25 -112 8 -13 5 -21 -10 -34 -27 -24 -25 -48 6
-72 37 -29 49 -27 80 14 36 47 61 43 92 -13 13 -24 26 -41 28 -39 8 7 -47 104
-71 127 l-23 22 -18 -31 c-10 -17 -21 -31 -25 -31 -18 0 -32 38 -45 127 -24
164 -45 212 -136 308 -85 92 -151 123 -215 102z"/>
<path d="M2845 1256 c-46 -20 -65 -44 -65 -79 0 -54 24 -77 77 -77 49 0 139
43 128 61 -4 5 -18 1 -32 -11 -41 -32 -46 -26 -41 45 3 36 2 65 -2 65 -5 0
-14 2 -22 5 -7 2 -27 -2 -43 -9z"/>
<path d="M3188 2833 c-32 -33 -29 -78 5 -87 21 -6 21 -7 -5 -22 -20 -10 -28
-22 -28 -43 0 -37 28 -61 73 -61 32 0 39 4 53 34 15 31 15 35 -1 60 -10 15
-26 31 -36 37 -16 8 -17 13 -7 29 13 21 2 70 -17 77 -6 2 -23 -9 -37 -24z"/>
<path d="M4207 2494 c-3 -3 -3 -13 0 -21 4 -9 -2 -16 -16 -20 -16 -4 -20 -11
-15 -25 5 -17 3 -19 -15 -13 -23 7 -28 -9 -12 -35 14 -20 3 -32 -19 -20 -15 8
-21 6 -30 -9 -14 -27 -13 -29 14 -24 18 4 28 -2 42 -26 18 -30 44 -42 44 -21
0 6 -7 27 -15 47 -21 50 -19 56 14 37 19 -11 35 -14 47 -9 18 8 18 9 -2 12
-12 2 -30 13 -39 23 -31 35 8 35 71 1 59 -33 93 -66 94 -91 0 -12 3 -11 11 3
16 28 2 51 -51 82 -46 27 -49 31 -34 42 16 12 16 15 -11 43 -26 27 -63 39 -78
24z"/>
<path d="M4938 2853 c-10 -2 -18 -11 -18 -18 0 -11 8 -13 30 -9 25 5 35 1 60
-26 38 -41 40 -81 4 -116 -19 -20 -31 -24 -52 -20 -30 7 -72 49 -72 72 0 16
35 11 84 -12 35 -17 43 -12 28 20 -7 16 -22 25 -49 30 -21 3 -48 9 -60 12 -22
6 -23 4 -23 -49 0 -49 4 -59 32 -87 28 -28 37 -31 71 -27 70 10 101 53 91 129
-11 80 -59 119 -126 101z"/>
<path d="M4830 2624 c0 -5 14 -27 30 -48 17 -22 28 -41 26 -43 -1 -2 -20 4
-41 12 -20 9 -39 14 -42 12 -2 -3 3 -19 11 -36 21 -40 21 -41 -20 -41 -32 0
-35 -2 -28 -22 8 -30 16 -36 21 -20 14 37 87 -16 76 -56 -7 -27 -8 -27 -40 -2
-25 19 -103 29 -103 13 1 -11 37 -53 45 -53 3 0 3 5 0 10 -3 6 3 10 14 10 15
0 21 -7 21 -22 0 -30 10 -44 38 -52 15 -5 23 -3 26 6 2 7 10 40 18 74 l15 61
-29 31 c-48 55 -25 74 31 26 38 -32 42 -14 10 47 -11 23 -18 43 -16 46 3 2 19
-3 36 -12 23 -12 31 -12 31 -3 0 22 -14 33 -55 44 -22 6 -48 15 -57 19 -10 4
-18 3 -18 -1z"/>
<path d="M5550 2688 c-106 -72 -112 -270 -11 -402 30 -40 38 -59 34 -79 -6
-31 -13 -33 -54 -11 -17 8 -32 14 -34 12 -1 -2 -5 -20 -8 -41 -5 -32 -4 -37 8
-27 14 12 85 4 85 -10 0 -4 10 -10 23 -14 31 -7 116 -83 128 -113 15 -39 30
-27 23 20 -9 61 -56 143 -121 212 -145 153 -171 321 -65 423 32 30 77 33 99 5
6 -8 17 -13 23 -11 7 2 4 14 -10 31 -27 34 -74 36 -120 5z"/>
<path d="M5295 2040 c-4 -6 -4 -28 0 -50 7 -43 54 -92 111 -116 21 -9 33 -22
37 -39 7 -38 -17 -42 -57 -12 -43 33 -80 28 -64 -9 8 -17 14 -21 19 -13 10 18
59 -16 59 -40 0 -18 -3 -18 -51 -4 -28 8 -53 13 -56 10 -3 -3 -2 -20 2 -38 7
-31 8 -32 21 -14 11 15 19 17 41 9 16 -5 29 -18 31 -29 3 -20 3 -20 -13 -1
-14 19 -15 19 -15 -7 0 -20 7 -31 25 -39 34 -15 41 -5 29 40 -17 65 7 84 44
37 l20 -26 7 31 c4 16 1 46 -5 66 -7 19 -10 38 -7 41 8 8 67 -30 99 -64 27
-28 48 -72 48 -99 0 -19 -29 -18 -36 1 -4 8 -12 15 -20 15 -24 0 1 -44 30 -51
30 -8 46 11 46 56 0 65 -44 119 -140 171 -40 22 -52 35 -62 66 -6 21 -14 38
-18 38 -4 0 -19 18 -34 40 -21 32 -32 40 -56 40 -16 0 -32 -5 -35 -10z"/>
<path d="M5274 1349 c-18 -5 -40 -21 -49 -36 -10 -16 -25 -32 -33 -37 -12 -7
-8 -11 17 -22 42 -18 32 -31 -27 -39 -72 -10 -100 -24 -157 -80 -44 -42 -57
-63 -73 -118 -24 -79 -18 -115 21 -137 25 -14 28 -13 49 8 l23 23 -35 -3 c-35
-3 -35 -3 -38 40 -2 29 4 58 18 88 26 52 115 134 147 134 12 0 34 5 50 11 33
12 37 11 38 -15 2 -23 31 -46 58 -46 26 0 77 53 78 82 2 39 -2 52 -22 73 -19
20 -19 20 -13 -13 9 -44 -15 -43 -51 3 l-26 36 31 29 c18 17 31 30 29 29 -2 0
-18 -5 -35 -10z"/>
<path d="M4616 1260 c-45 -40 -71 -114 -62 -181 4 -27 25 -102 47 -166 28 -80
40 -130 37 -156 -3 -30 0 -37 12 -35 11 2 16 18 18 56 2 42 -4 69 -32 135 -49
118 -62 182 -46 246 14 61 61 106 92 90 10 -5 18 -17 18 -25 0 -8 5 -12 10 -9
27 17 -6 75 -43 75 -9 0 -32 -14 -51 -30z"/>
<path d="M4489 1154 c-19 -23 -14 -106 11 -173 l21 -58 -31 -32 c-23 -22 -30
-37 -26 -51 3 -11 9 -29 12 -40 4 -14 2 -20 -9 -20 -9 0 -21 17 -29 42 -17 50
-31 57 -46 23 -8 -16 -8 -25 -1 -25 5 0 19 -21 31 -47 l21 -47 22 28 c18 23
26 26 42 18 16 -9 21 -6 31 20 9 24 8 29 -3 25 -14 -6 -45 22 -45 40 0 6 7 16
15 23 21 17 30 7 60 -66 24 -58 24 -58 34 -31 8 22 7 33 -4 51 -29 43 -86 202
-92 253 -5 48 -4 52 23 67 l29 15 -26 1 c-15 0 -32 -7 -40 -16z"/>
<path d="M3932 659 c-12 -5 -28 -20 -34 -35 -10 -22 -9 -32 10 -66 25 -47 20
-61 -51 -120 -49 -41 -88 -53 -197 -63 -99 -8 -151 -45 -221 -153 -76 -119
-59 -119 26 -1 53 74 125 106 243 110 49 2 73 8 105 29 61 39 135 123 159 180
11 28 27 50 34 50 8 0 14 7 14 16 0 11 -6 14 -20 9 -15 -5 -20 -2 -20 13 0 28
-21 41 -48 31z"/>
</g>
</svg>
